<svg width="64" height="64" viewBox="0 0 64 64" fill="none" xmlns="http://www.w3.org/2000/svg">
<rect width="64" height="64" rx="32" fill="#357D9F"/>
<mask id="mask0" mask-type="alpha" maskUnits="userSpaceOnUse" x="0" y="0" width="64" height="64">
<rect width="64" height="64" rx="32" fill="#FF5239"/>
</mask>
<g mask="url(#mask0)">
</g>
<g clip-path="url(#clip0)">
<path d="M36.9683 28.1308C36.0448 27.567 35.4814 26.563 35.4814 25.4809V3H28.5187V25.4808C28.5187 26.5554 27.9489 27.5708 27.0317 28.1308L19.8196 32.5338C19.4204 32.7774 19.2944 33.2985 19.5381 33.6976L22.2837 38.195C22.5273 38.5941 23.0484 38.7201 23.4476 38.4765L30.6596 34.0735C30.9572 33.8919 31.2433 33.6952 31.5174 33.4851C31.8028 33.2665 32.2007 33.2669 32.4858 33.486C32.7588 33.6959 33.0436 33.8924 33.3402 34.0735L40.5522 38.4765C40.9513 38.7201 41.4724 38.5941 41.7162 38.195L44.4618 33.6976C44.7054 33.2985 44.5794 32.7774 44.1803 32.5338L36.9683 28.1308Z" fill="#F5D7B7"/>
<path opacity="0.1" d="M28.5187 25.4807C28.5187 26.5553 27.9489 27.5707 27.0317 28.1307L19.8196 32.5337C19.4204 32.7773 19.2944 33.2985 19.5381 33.6976L22.2837 38.195C22.5273 38.5941 23.0484 38.7201 23.4476 38.4765L30.6596 34.0735C30.7789 34.0006 30.8951 33.9236 31.0108 33.846C31.1033 31.0023 31.1296 28.1855 31.1296 25.4806C31.1296 22.7547 30.1467 20.255 28.5186 18.314V25.4807H28.5187Z" fill="black"/>
<path d="M19.9609 16.9231C17.5977 16.9231 15.4583 17.881 13.9096 19.4296C3.76825 29.571 0 45.263 0 56.1641C0 57.5061 0.512 58.848 1.53587 59.872C2.55975 60.896 3.90175 61.4078 5.24375 61.4078C7.7765 61.4078 17.0885 62.4606 22.8272 58.1585C23.1884 57.903 23.5339 57.6156 23.8573 57.2922C24.9174 56.2321 25.6129 54.9453 25.9436 53.5878C28.301 45.0113 28.5186 33.7862 28.5186 25.481C28.5186 20.7545 24.6871 16.9231 19.9609 16.9231Z" fill="#F28B74"/>
<path opacity="0.1" d="M26.7409 50.2079C8.16313 59.7414 3.45363 42.5474 5.76625 31.1074C1.669 39.5515 0 48.9162 0 56.1641C0 57.5061 0.512 58.848 1.53587 59.8719C2.55975 60.8958 3.90175 61.4078 5.24375 61.4078C7.7765 61.4078 17.0885 62.4606 22.8272 58.1584C23.1884 57.9029 23.5339 57.6155 23.8573 57.2922C24.9174 56.232 25.6129 54.9453 25.9436 53.5878C26.2426 52.5001 26.5069 51.3694 26.7409 50.2079Z" fill="black"/>
<path opacity="0.1" d="M41.7164 38.1951L44.462 33.6977C44.7056 33.2986 44.5796 32.7774 44.1805 32.5338L36.9684 28.1308C36.0449 27.5671 35.4815 26.5631 35.4815 25.481V18.3142C33.8532 20.2553 32.8705 22.755 32.8705 25.4808C32.8705 28.1855 32.8969 31.0022 32.9892 33.8458C33.1049 33.9236 33.221 34.0008 33.3404 34.0737L40.5525 38.4767C40.9516 38.7203 41.4727 38.5942 41.7164 38.1951Z" fill="black"/>
<path d="M44.0391 16.9231C46.4022 16.9231 48.5417 17.881 50.0903 19.4296C60.2318 29.571 63.9999 45.263 63.9999 56.1641C63.9999 57.5061 63.4879 58.848 62.4641 59.872C61.4402 60.896 60.0982 61.4078 58.7562 61.4078C56.2234 61.4078 46.9114 62.4606 41.1727 58.1585C40.8116 57.903 40.4661 57.6156 40.1427 57.2922C39.0826 56.2321 38.3871 54.9453 38.0563 53.5878C35.6989 45.0113 35.4813 33.7862 35.4813 25.481C35.4813 20.7545 39.3128 16.9231 44.0391 16.9231Z" fill="#F28B74"/>
<path opacity="0.1" d="M58.7565 61.4079C60.0985 61.4079 61.4404 60.8959 62.4644 59.872C63.4884 58.8481 64.0001 57.5061 64.0001 56.1641C64.0001 54.7197 63.9318 53.1894 63.7934 51.6007C49.2949 57.0606 38.3228 43.3276 35.6243 34.5107C35.8621 40.9451 36.4814 47.8572 38.0565 53.5877C38.3874 54.9452 39.0828 56.232 40.1429 57.2921C40.4663 57.6155 40.8118 57.9029 41.1729 58.1584C46.9118 62.4606 56.2238 61.4079 58.7565 61.4079Z" fill="black"/>
<g opacity="0.1">
<path opacity="0.1" d="M35.4815 8.57788H28.5188V10.4529H35.4815V8.57788Z" fill="black"/>
<path opacity="0.1" d="M35.4815 13.1466H28.5188V15.0216H35.4815V13.1466Z" fill="black"/>
<path opacity="0.1" d="M35.4815 17.7153H28.5188V19.5903H35.4815V17.7153Z" fill="black"/>
<path opacity="0.1" d="M35.4815 22.2842H28.5188V24.1592H35.4815V22.2842Z" fill="black"/>
</g>
</g>
<defs>
<clipPath id="clip0">
<rect width="64" height="64" fill="white"/>
</clipPath>
</defs>
</svg>
