<svg width="28" height="28" viewBox="0 0 28 28" fill="none" xmlns="http://www.w3.org/2000/svg">
<path d="M23 5H5C4.46957 5 3.96086 5.21071 3.58579 5.58579C3.21071 5.96086 3 6.46957 3 7V20C3 20.5304 3.21071 21.0391 3.58579 21.4142C3.96086 21.7893 4.46957 22 5 22H23C23.5304 22 24.0391 21.7893 24.4142 21.4142C24.7893 21.0391 25 20.5304 25 20V7C25 6.46957 24.7893 5.96086 24.4142 5.58579C24.0391 5.21071 23.5304 5 23 5ZM5 20V7H13V20H5ZM23 20H15V7H23V20ZM16 10.5H22V12H16V10.5ZM16 13H22V14.5H16V13ZM16 15.5H22V17H16V15.5Z" fill="#343A48"/>
</svg>
