<svg width="60" height="216" viewBox="0 0 60 216" fill="none" xmlns="http://www.w3.org/2000/svg">
<path fill-rule="evenodd" clip-rule="evenodd" d="M56 169.788V204C56 207.183 54.7357 210.235 52.4853 212.485C50.2349 214.736 47.1826 216 44 216H16C12.8174 216 9.76515 214.736 7.51472 212.485C5.26428 210.235 4.00001 207.183 4.00001 204V169.788C1.43336 167.177 -0.00338735 163.661 5.99721e-06 160V56C-0.00338735 52.3387 1.43336 48.823 4.00001 46.212V12C4.00001 8.8174 5.26428 5.76515 7.51472 3.51471C9.76515 1.26427 12.8174 0 16 0H44C47.1826 0 50.2349 1.26427 52.4853 3.51471C54.7357 5.76515 56 8.8174 56 12V46.212C58.5667 48.823 60.0034 52.3387 60 56V160C60.0034 163.661 58.5667 167.177 56 169.788Z" fill="#343A48"/>
<path d="M44 50H16C11.5817 50 8 53.5817 8 58V158C8 162.418 11.5817 166 16 166H44C48.4183 166 52 162.418 52 158V58C52 53.5817 48.4183 50 44 50Z" fill="#F8F9FA"/>
</svg>
