<svg width="64" height="64" viewBox="0 0 64 64" fill="none" xmlns="http://www.w3.org/2000/svg">
<rect width="64" height="64" rx="32" fill="#357D9F"/>
<mask id="mask0" mask-type="alpha" maskUnits="userSpaceOnUse" x="0" y="0" width="64" height="64">
<rect width="64" height="64" rx="32" fill="#FF5239"/>
</mask>
<g mask="url(#mask0)">
<path d="M11.5824 17.0144L9.62631 20.4033C8.75672 21.9097 9.84326 23.7922 11.5824 23.7922C13.3216 23.7922 14.4082 21.9097 13.5386 20.4033L11.5824 17.0144Z" fill="#6AA5D3"/>
<path d="M11.5824 17.0144L9.62625 20.4033C9.50517 20.6137 9.42976 20.8307 9.38135 21.0494C9.58712 22.0391 10.4353 22.8612 11.5823 22.8612C12.7292 22.8612 13.5784 22.039 13.7832 21.0494C13.7348 20.8307 13.6594 20.6137 13.5383 20.4033L11.5824 17.0144Z" fill="#76B7EB"/>
<path d="M20.7625 24.6367L18.8064 28.0256C17.9368 29.5311 19.0233 31.4137 20.7625 31.4137C22.5017 31.4137 23.5882 29.5312 22.7186 28.0248L20.7625 24.6367Z" fill="#6AA5D3"/>
<path d="M20.7623 24.6367L18.8062 28.0256C18.6851 28.2361 18.6097 28.453 18.5613 28.6717C18.7661 29.6605 19.6152 30.4826 20.7622 30.4826C21.9093 30.4826 22.7583 29.6605 22.9631 28.6709C22.9147 28.4522 22.8393 28.2352 22.7182 28.0248L20.7623 24.6367Z" fill="#76B7EB"/>
<path d="M46.4311 15.5863H40.8448C39.8161 15.5863 38.9828 14.7529 38.9828 13.7242V11.8621C38.9828 10.8333 39.8161 10 40.8448 10H46.4311C47.4598 10 48.2931 10.8333 48.2931 11.8621V13.7241C48.2931 14.7529 47.4589 15.5863 46.4311 15.5863Z" fill="#619DCD"/>
<path d="M53.0581 29.5628V29.5404C55.0626 29.4808 56.6724 27.8469 56.6724 25.8275C56.6724 20.1714 52.087 15.5862 46.4311 15.5862H40.8448C35.1887 15.5862 30.6035 20.1715 30.6035 25.8275C30.6035 27.8432 32.2077 29.4744 34.2066 29.5396V29.5638C32.2067 29.629 30.6035 31.2602 30.6035 33.2759V37.9311C30.6035 39.9877 32.2709 41.6552 34.3276 41.6552H52.9483C55.0049 41.6552 56.6724 39.9877 56.6724 37.9311V33.2758C56.6724 31.2564 55.0626 29.6224 53.0581 29.5628Z" fill="#B7D7F2"/>
<path d="M56.6724 37.9311V35.1379H30.6035V37.9311C30.6035 39.9877 32.2709 41.6552 34.3276 41.6552C32.2709 41.6552 30.6035 43.3226 30.6035 45.3793V60.2759C30.6035 62.3325 32.2709 64 34.3276 64H52.9483C55.0049 64 56.6724 62.3325 56.6724 60.2759V45.3793C56.6724 43.3226 55.0049 41.6552 52.9483 41.6552C55.0049 41.6552 56.6724 39.9877 56.6724 37.9311Z" fill="#76B7EB"/>
<path d="M56.6184 60.8121H30.6575C30.92 62.6128 32.4544 64 34.3276 64H52.9483C54.8216 64 56.3559 62.6128 56.6184 60.8121Z" fill="#6AA5D3"/>
<path d="M19.4292 47.2414C21.8332 47.2414 22.8582 46.6287 24.0863 46.1064L24.4456 45.9323L25.0173 37.931H7.32764L7.89559 45.8821C8.68133 45.5972 9.61989 45.3793 11.048 45.3793C15.2386 45.3793 15.2386 47.2414 19.4292 47.2414Z" fill="#EAEAE8"/>
<path d="M24.0863 46.1065C22.8582 46.6288 21.8332 47.2414 19.4292 47.2414C15.2386 47.2414 15.2386 45.3794 11.048 45.3794C9.61977 45.3794 8.68226 45.5973 7.89557 45.8822L9.18967 64H23.1552L24.4456 45.9314L24.0863 46.1065Z" fill="#B3E4E8"/>
<path d="M24.0863 46.1065C22.8582 46.6288 21.8332 47.2414 19.4292 47.2414C15.2386 47.2414 15.2386 45.3794 11.048 45.3794C9.61977 45.3794 8.68226 45.5973 7.89557 45.8822L9.18967 64H23.1552L24.4456 45.9314L24.0863 46.1065Z" fill="#B3E4E8"/>
<path d="M24.0863 46.1065C22.8582 46.6288 21.8332 47.2414 19.4292 47.2414C15.2386 47.2414 15.2386 45.3794 11.048 45.3794C9.61977 45.3794 8.68226 45.5973 7.89557 45.8822L9.18967 64H23.1552L24.4456 45.9314L24.0863 46.1065Z" fill="#76B7EB"/>
<path d="M8.99046 61.2068L9.18969 63.9999H23.1552L23.3545 61.2068H8.99046Z" fill="#6AA5D3"/>
</g>
</svg>
