<svg width="28" height="28" viewBox="0 0 28 28" fill="none" xmlns="http://www.w3.org/2000/svg">
<path d="M19 19H10V12.5C10 10 12 8 14.5 8C17 8 19 10 19 12.5V19ZM21 18V12.5C21 9.43 18.86 6.86 16 6.18V5.5C16 5.10218 15.842 4.72064 15.5607 4.43934C15.2794 4.15804 14.8978 4 14.5 4C14.1022 4 13.7206 4.15804 13.4393 4.43934C13.158 4.72064 13 5.10218 13 5.5V6.18C10.13 6.86 8 9.43 8 12.5V18L6 20V21H23V20L21 18ZM14.5 24C15.0304 24 15.5391 23.7893 15.9142 23.4142C16.2893 23.0391 16.5 22.5304 16.5 22H12.5C12.5 22.5304 12.7107 23.0391 13.0858 23.4142C13.4609 23.7893 13.9696 24 14.5 24Z" fill="#343A48"/>
</svg>
