<svg width="24" height="24" viewBox="0 0 24 24" fill="none" xmlns="http://www.w3.org/2000/svg">
<g clip-path="url(#clip0)">
<path d="M22.6738 0.00100708H1.3246C0.593539 0.00100708 0 0.59336 0 1.3256V22.6748C0 23.4071 0.593539 24.0002 1.3246 24.0002H12.8184V14.7063H9.69105V11.0838H12.8184V8.41251C12.8184 5.31322 14.7108 3.62468 17.4762 3.62468C18.802 3.62468 19.9389 3.72386 20.2704 3.76694V7.00651L18.3523 7.0073C16.8487 7.0073 16.5586 7.72215 16.5586 8.77053V11.0826H20.1459L19.6769 14.7047H16.5582V23.999H22.6734C23.4053 23.999 23.9992 23.4051 23.9992 22.6748V1.32481C23.9988 0.593361 23.4057 0.00100708 22.6738 0.00100708Z" fill="#4267B2"/>
</g>
<defs>
<clipPath id="clip0">
<rect width="24" height="23.9996" fill="white"/>
</clipPath>
</defs>
</svg>
