<svg width="24" height="24" viewBox="0 0 24 24" fill="none" xmlns="http://www.w3.org/2000/svg">
<path d="M22.9979 13.7374C23.0874 13.1707 23.1346 12.591 23.1346 11.9994C23.1346 5.84958 18.1495 0.86459 11.9995 0.86459C11.4094 0.86459 10.8281 0.91319 10.2619 1.00174C9.23643 0.367207 8.02606 0 6.72892 0C3.01283 0 0.000244141 3.0122 0.000244141 6.72868C0.000244141 8.02554 0.367674 9.2349 1.00193 10.2625C0.91416 10.8301 0.865838 11.4079 0.865838 11.9996C0.865838 18.1498 5.85083 23.1333 11.9993 23.1333C12.5899 23.1333 13.1715 23.0878 13.7375 22.9984C14.7641 23.6317 15.9735 23.9999 17.2703 23.9999C20.9874 23.9999 23.9997 20.987 23.9997 17.2706C24 15.9732 23.6328 14.7642 22.9979 13.7374ZM17.2862 17.0636C16.8152 17.7417 16.1232 18.2716 15.2191 18.6527C14.3131 19.0347 13.2423 19.2248 12.0057 19.2248C10.5236 19.2248 9.29647 18.9655 8.32787 18.4417C7.64128 18.0667 7.08285 17.5636 6.65354 16.9363C6.22334 16.3085 6.00522 15.6936 6.00522 15.0941C6.00522 14.7405 6.14009 14.4329 6.40262 14.1822C6.66788 13.9296 7.00953 13.803 7.41278 13.803C7.74311 13.803 8.02684 13.9025 8.25784 14.0996C8.48712 14.2967 8.67945 14.5832 8.83675 14.9613C9.02529 15.3993 9.23007 15.7654 9.44796 16.0576C9.66451 16.3461 9.96928 16.587 10.364 16.7756C10.7544 16.9646 11.2739 17.0591 11.924 17.0591C12.8137 17.0591 13.5327 16.8667 14.083 16.487C14.6361 16.1039 14.9017 15.6378 14.9017 15.0746C14.9017 14.6253 14.7585 14.2686 14.4648 13.9904C14.1684 13.7086 13.7856 13.494 13.3106 13.3443C12.8337 13.193 12.1935 13.0326 11.3912 12.8636C10.3138 12.6285 9.41281 12.3548 8.68314 12.0405C7.95252 11.725 7.37066 11.2937 6.93939 10.749C6.50724 10.1989 6.29175 9.51512 6.29175 8.70527C6.29175 7.93302 6.51924 7.24241 6.97466 6.64136C7.42986 6.03863 8.08844 5.57729 8.94717 5.25595C9.80289 4.93472 10.8103 4.77402 11.9644 4.77402C12.8874 4.77402 13.6858 4.88082 14.3615 5.0933C15.0355 5.30734 15.5972 5.58979 16.0464 5.94422C16.4927 6.29786 16.8212 6.67087 17.0292 7.0623C17.237 7.45489 17.3417 7.83834 17.3417 8.21252C17.3417 8.56042 17.2068 8.87596 16.944 9.15249C16.6813 9.42942 16.3451 9.57058 15.9526 9.5693C15.5987 9.5693 15.3211 9.48767 15.1286 9.31486C14.9412 9.14769 14.7442 8.88153 14.5313 8.51059C14.262 7.99301 13.9396 7.58976 13.5646 7.30134C13.1995 7.01827 12.5972 6.87091 11.7591 6.87269C10.9836 6.87269 10.3631 7.03116 9.89479 7.34106C9.42358 7.65593 9.19832 8.02124 9.19726 8.44927C9.19804 8.71749 9.27515 8.94364 9.43033 9.13703C9.5879 9.33222 9.80713 9.50134 10.0889 9.6439C10.3708 9.7887 10.6575 9.90069 10.9457 9.98126C11.2372 10.0639 11.7209 10.1834 12.3933 10.3415C13.2365 10.5233 14.0014 10.7263 14.6886 10.9476C15.3745 11.17 15.9599 11.4383 16.4435 11.7578C16.931 12.0764 17.312 12.4826 17.5839 12.9733C17.8578 13.4647 17.9943 14.0649 17.9943 14.7712C17.9953 15.6217 17.7584 16.3865 17.2862 17.0636Z" fill="#00A9E8"/>
</svg>
