<svg width="24" height="24" viewBox="0 0 24 24" fill="none" xmlns="http://www.w3.org/2000/svg">
<g clip-path="url(#clip0)">
<path d="M24 4.55911C23.1166 4.95052 22.1688 5.21598 21.173 5.33449C22.1898 4.72558 22.9682 3.75978 23.3371 2.61249C22.3833 3.17637 21.3304 3.58582 20.2086 3.80778C19.3103 2.84947 18.0325 2.25256 16.6153 2.25256C13.8963 2.25256 11.6917 4.45715 11.6917 7.17464C11.6917 7.56005 11.7352 7.93649 11.8192 8.29645C7.728 8.09096 4.1002 6.13084 1.67216 3.15237C1.24773 3.87825 1.00627 4.72405 1.00627 5.62692C1.00627 7.33511 1.87612 8.84233 3.19588 9.72413C2.38902 9.69715 1.63016 9.47519 0.965804 9.10625V9.16774C0.965804 11.5523 2.66349 13.5424 4.91455 13.9953C4.50212 14.1063 4.06722 14.1678 3.61729 14.1678C3.29937 14.1678 2.99192 14.1363 2.69047 14.0763C3.31733 16.0335 5.13502 17.4567 7.28863 17.4957C5.60443 18.8155 3.48082 19.5998 1.17427 19.5998C0.776863 19.5998 0.385412 19.5758 0 19.5323C2.1791 20.9316 4.76612 21.7474 7.54659 21.7474C16.6034 21.7474 21.554 14.2458 21.554 7.74006L21.5375 7.10268C22.5047 6.41276 23.3416 5.54594 24 4.55911Z" fill="#1DA1F2"/>
</g>
<defs>
<clipPath id="clip0">
<rect width="24" height="24" fill="white"/>
</clipPath>
</defs>
</svg>
