<svg width="23" height="24" viewBox="0 0 23 24" fill="none" xmlns="http://www.w3.org/2000/svg">
<g clip-path="url(#clip0)">
<path d="M20.2396 2.31941C19.6903 1.77011 17.2734 0.0123464 11.8902 0.0123464C11.8902 0.0123464 5.51835 -0.317234 2.44226 2.42927C0.684492 4.07718 0.135191 6.60396 0.0253305 9.78991C-0.0845298 12.866 -0.0845297 18.7985 5.51835 20.3365V22.7534C5.51835 22.7534 5.51835 23.7422 6.17751 23.9619C6.94653 24.1816 7.38597 23.4126 8.15499 22.6436C8.59444 22.2041 9.14374 21.545 9.58318 21.1055C13.4283 21.4351 16.3945 20.6661 16.7241 20.5562C17.4931 20.3365 21.8875 19.7872 22.6566 13.8547C23.3157 7.81243 22.2171 3.96732 20.2396 2.31941ZM20.8988 13.4153C20.2396 18.2492 16.7241 18.5787 16.0649 18.7985C15.7354 18.9083 13.2086 19.5675 9.91276 19.3478C9.91276 19.3478 7.49583 22.314 6.72681 23.083C6.61695 23.1929 6.50709 23.3027 6.39723 23.1929C6.28737 23.1929 6.17751 22.9732 6.17751 22.7534C6.17751 22.4239 6.17751 18.6886 6.17751 18.6886C1.45351 17.3703 1.67324 12.4266 1.7831 9.78991C1.7831 7.15327 2.3324 5.06592 3.76058 3.63774C6.39723 1.22081 11.7804 1.66025 11.7804 1.66025C16.2847 1.66025 18.4819 3.08844 19.0312 3.52788C20.6791 4.95606 21.558 8.36173 20.8988 13.4153Z" fill="#675DA9"/>
<path d="M14.0873 9.89977C13.9775 9.89977 13.7578 9.78991 13.7578 9.57019C13.7578 8.58145 13.2085 8.03215 12.2197 8.03215C12 8.03215 11.8901 7.92229 11.8901 7.70257C11.8901 7.48285 12 7.37299 12.2197 7.37299C13.538 7.48285 14.3071 8.14201 14.3071 9.57019C14.4169 9.78991 14.3071 9.89977 14.0873 9.89977Z" fill="#675DA9"/>
<path d="M15.6256 10.4491C15.4059 10.4491 15.296 10.3392 15.296 10.1195C15.296 9.13074 15.0763 8.25186 14.4172 7.59269C13.758 6.93353 12.8791 6.49409 11.7805 6.49409C11.5608 6.49409 11.4509 6.38423 11.4509 6.16451C11.4509 5.94479 11.5608 5.83493 11.7805 5.83493C13.0988 5.94479 14.0876 6.38423 14.8566 7.15325C15.6256 7.92228 15.9552 8.91102 15.9552 10.1195C15.9552 10.3392 15.8453 10.4491 15.6256 10.4491Z" fill="#675DA9"/>
<path d="M17.2735 11.1082C17.0538 11.1082 16.9439 10.9984 16.9439 10.7787C16.9439 8.91104 16.3946 7.48285 15.296 6.49411C14.1974 5.39551 12.8791 4.95606 11.2312 4.8462C11.0115 4.8462 10.9016 4.73634 10.9016 4.51662C10.9016 4.2969 11.0115 4.18704 11.2312 4.18704C12.989 4.18704 14.527 4.8462 15.7355 5.94481C16.9439 7.15327 17.4932 8.69131 17.6031 10.6688C17.4932 10.8885 17.3834 11.1082 17.2735 11.1082Z" fill="#675DA9"/>
<path d="M12.3296 13.7449C12.3296 13.7449 12.7691 13.7449 12.9888 13.5252L13.4282 12.9759C13.648 12.6463 14.1973 12.5364 14.6367 12.7561C14.9663 12.866 15.4057 13.1956 15.7353 13.4153C16.0649 13.635 16.7241 14.2942 16.7241 14.2942C17.0536 14.6238 17.1635 14.9533 16.9438 15.3928C16.7241 15.8322 16.3945 16.1618 16.0649 16.4914C15.7353 16.7111 15.4057 16.9308 15.0761 16.9308H14.9663C14.8564 16.9308 14.7466 16.9308 14.5268 16.821C14.0874 16.7111 13.2085 16.3815 11.8902 15.6125C11.0113 15.1731 10.3522 14.6238 9.69299 14.1843C9.47327 14.0745 9.14369 13.7449 8.81411 13.4153C8.48453 13.0857 8.15495 12.7561 7.93523 12.4266C7.49579 11.7674 6.94649 11.1082 6.50704 10.2293C5.73802 8.91103 5.40844 8.142 5.29858 7.5927C5.29858 7.48284 5.18872 7.37298 5.18872 7.15326C5.18872 7.0434 5.18872 7.0434 5.18872 7.0434C5.18872 6.71382 5.40844 6.38424 5.62816 6.05466C5.95774 5.61522 6.39718 5.39549 6.72677 5.17577C7.16621 4.95605 7.60565 5.06591 7.82537 5.39549C7.82537 5.39549 8.37467 6.05466 8.70425 6.38424C8.92397 6.71382 9.25355 7.26312 9.36341 7.48284C9.69299 8.03214 9.47327 8.47158 9.14369 8.6913L8.59439 9.13075C8.26481 9.35047 8.37467 9.78991 8.37467 9.78991C8.37467 9.78991 9.14369 12.866 12.3296 13.7449Z" fill="#675DA9"/>
</g>
<defs>
<clipPath id="clip0">
<rect width="22.8482" height="24" fill="white"/>
</clipPath>
</defs>
</svg>
