<svg width="27" height="16" viewBox="0 0 27 16" fill="none" xmlns="http://www.w3.org/2000/svg">
<g clip-path="url(#clip0)">
<path fill-rule="evenodd" clip-rule="evenodd" d="M25.0612 1.02168C25.2378 0.432749 25.0612 0 24.2206 0H21.4412C20.7345 0 20.4087 0.373832 20.232 0.786056C20.232 0.786056 18.8186 4.23125 16.8163 6.46912C16.1685 7.11692 15.874 7.32303 15.5206 7.32303C15.344 7.32303 15.079 7.11692 15.079 6.52804V1.02168C15.079 0.314963 14.8832 0 14.2942 0H9.92653C9.48489 0 9.21929 0.328002 9.21929 0.638861C9.21929 1.30881 10.2204 1.46331 10.3236 3.34788V7.44086C10.3236 8.33824 10.1615 8.50093 9.80817 8.50093C8.86593 8.50093 6.57395 5.04035 5.21458 1.08054C4.94818 0.310895 4.68098 0 3.97064 0H1.19123C0.397115 0 0.238281 0.373832 0.238281 0.786056C0.238281 1.52223 1.18057 5.17353 4.62571 10.0026C6.92245 13.3005 10.1584 15.0882 13.103 15.0882C14.8697 15.0882 15.0883 14.6912 15.0883 14.0072V11.5147C15.0883 10.7206 15.2557 10.5621 15.8151 10.5621C16.2274 10.5621 16.9341 10.7682 18.5831 12.3583C20.4676 14.2428 20.7783 15.0882 21.8383 15.0882H24.6177C25.4118 15.0882 25.8089 14.6912 25.5798 13.9076C25.3292 13.1266 24.4294 11.9936 23.2355 10.6504C22.5877 9.88485 21.616 9.0604 21.3215 8.64808C20.9093 8.11812 21.0271 7.8825 21.3215 7.4114C21.3215 7.4114 24.7078 2.64117 25.0612 1.02168Z" fill="#4A76A8"/>
</g>
<defs>
<clipPath id="clip0">
<rect width="27" height="15.0882" fill="white"/>
</clipPath>
</defs>
</svg>
