<svg width="30" height="30" viewBox="0 0 30 30" fill="none" xmlns="http://www.w3.org/2000/svg">
<path d="M7.92912 25.7838L8.41959 26.027C10.4632 27.2432 12.752 27.8108 15.0408 27.8108C22.2343 27.8108 28.1199 21.973 28.1199 14.8378C28.1199 11.4324 26.7302 8.10811 24.2779 5.67568C21.8256 3.24325 18.5558 1.86487 15.0408 1.86487C7.84738 1.86487 1.96182 7.70271 2.04357 14.9189C2.04357 17.3514 2.77926 19.7027 4.00542 21.7297L4.33239 22.2162L3.02449 27L7.92912 25.7838Z" fill="#00E676"/>
<path d="M25.6676 4.37838C22.8883 1.54054 19.0463 0 15.1226 0C6.78474 0 0.0817439 6.72973 0.163488 14.9189C0.163488 17.5135 0.899182 20.027 2.12534 22.2973L0 30L7.92915 27.973C10.1362 29.1892 12.5886 29.7568 15.0409 29.7568C23.297 29.7568 30 23.027 30 14.8378C30 10.8649 28.4469 7.13514 25.6676 4.37838ZM15.1226 27.2432C12.9155 27.2432 10.7084 26.6757 8.82834 25.5405L8.33787 25.2973L3.59673 26.5135L4.82289 21.8919L4.49591 21.4054C0.899182 15.6486 2.6158 8.02703 8.50136 4.45946C14.3869 0.891892 21.9891 2.59459 25.5858 8.43243C29.1826 14.2703 27.4659 21.8108 21.5804 25.3784C19.7003 26.5946 17.4114 27.2432 15.1226 27.2432ZM22.3161 18.2432L21.4169 17.8378C21.4169 17.8378 20.109 17.2703 19.2916 16.8649C19.2098 16.8649 19.1281 16.7838 19.0463 16.7838C18.8011 16.7838 18.6376 16.8649 18.4741 16.9459C18.4741 16.9459 18.3924 17.027 17.248 18.3243C17.1662 18.4865 17.0027 18.5676 16.8392 18.5676H16.7575C16.6757 18.5676 16.5123 18.4865 16.4305 18.4054L16.0218 18.2432C15.1226 17.8378 14.3052 17.3514 13.6512 16.7027C13.4877 16.5405 13.2425 16.3784 13.079 16.2162C12.5068 15.6486 11.9346 15 11.5259 14.2703L11.4441 14.1081C11.3624 14.027 11.3624 13.9459 11.2807 13.7838C11.2807 13.6216 11.2807 13.4595 11.3624 13.3784C11.3624 13.3784 11.6894 12.973 11.9346 12.7297C12.0981 12.5676 12.1798 12.3243 12.3433 12.1622C12.5068 11.9189 12.5886 11.5946 12.5068 11.3514C12.4251 10.9459 11.4441 8.75676 11.1989 8.27027C11.0354 8.02703 10.8719 7.94595 10.6267 7.86486H10.3815C10.218 7.86486 9.97275 7.86486 9.72752 7.86486C9.56403 7.86486 9.40055 7.94595 9.23706 7.94595L9.15531 8.02703C8.99183 8.10811 8.82834 8.27027 8.66485 8.35135C8.50136 8.51351 8.41962 8.67568 8.25613 8.83784C7.68392 9.56757 7.35695 10.4595 7.35695 11.3514C7.35695 12 7.52044 12.6486 7.76567 13.2162L7.84741 13.4595C8.58311 15 9.56403 16.3784 10.8719 17.5946L11.1989 17.9189C11.4441 18.1622 11.6894 18.3243 11.8529 18.5676C13.5695 20.027 15.5313 21.0811 17.7384 21.6486C17.9837 21.7297 18.3106 21.7297 18.5559 21.8108C18.8011 21.8108 19.1281 21.8108 19.3733 21.8108C19.782 21.8108 20.2725 21.6486 20.5995 21.4865C20.8447 21.3243 21.0082 21.3243 21.1717 21.1622L21.3351 21C21.4986 20.8378 21.6621 20.7568 21.8256 20.5946C21.9891 20.4324 22.1526 20.2703 22.2343 20.1081C22.3978 19.7838 22.4796 19.3784 22.5613 18.973C22.5613 18.8108 22.5613 18.5676 22.5613 18.4054C22.5613 18.4054 22.4796 18.3243 22.3161 18.2432Z" fill="white"/>
</svg>
