<svg width="28" height="28" viewBox="0 0 28 28" fill="none" xmlns="http://www.w3.org/2000/svg">
<path d="M26.3292 10.8611L22.5257 9.46316V9.15789C22.5257 7.41684 21.1781 6 19.5221 6H8.47792C6.82194 6 5.47433 7.41684 5.47433 9.15789V9.46316L1.6708 10.8611C1.26932 11.0084 1 11.4063 1 11.8547V19.6842C1 20.1389 1.27733 20.5421 1.68882 20.6842L5.47433 21.9926V22.8421C5.47433 24.5832 6.82194 26 8.47792 26H19.5221C21.1781 26 22.5257 24.5832 22.5257 22.8421V21.9926L26.3112 20.6842C26.7217 20.5421 27 20.1379 27 19.6842V11.8547C27 11.4063 26.7307 11.0084 26.3292 10.8611ZM3.00239 18.9221V12.6011L5.47433 11.6926V19.7758L3.00239 18.9221ZM20.5233 22.8421C20.5233 23.4232 20.0747 23.8947 19.5221 23.8947H8.47792C7.92626 23.8947 7.47672 23.4232 7.47672 22.8421V9.15789C7.47672 8.57789 7.92626 8.10526 8.47792 8.10526H19.5221C20.0747 8.10526 20.5233 8.57789 20.5233 9.15789V22.8421ZM24.9976 18.9221L22.5257 19.7758V11.6926L24.9976 12.6011V18.9221Z" fill="#12D8A8"/>
<path d="M23.93 6.96498C23.93 7.53631 24.3926 8 24.965 8C25.5373 8 26 7.53631 26 6.96498C26 4.22736 23.7726 2 21.035 2C20.4627 2 20 2.46369 20 3.03502C20 3.60635 20.4627 4.07004 21.035 4.07004C22.631 4.07004 23.93 5.36898 23.93 6.96498Z" fill="#12D8A8"/>
</svg>
