<svg width="64" height="64" viewBox="0 0 64 64" fill="none" xmlns="http://www.w3.org/2000/svg">
<rect width="64" height="64" rx="32" fill="#357D9F"/>
<mask id="mask0" mask-type="alpha" maskUnits="userSpaceOnUse" x="0" y="0" width="64" height="64">
<rect width="64" height="64" rx="32" fill="#FF5239"/>
</mask>
<g mask="url(#mask0)">
</g>
<g clip-path="url(#clip0)">
<path d="M63.8635 16.4191C63.4695 15.1256 62.0667 14.4333 60.8011 14.9088C60.3758 15.069 59.9114 15.2433 59.4241 15.4254C58.1092 15.9181 56.906 16.6569 55.8699 17.6046C50.8191 22.2286 43.9075 27.1822 35.5975 29.713C17.6249 35.1871 8.06876 19.8356 5.9799 15.9547L3.86272 20.4074C5.00725 21.8624 5.9384 23.5197 6.06486 25.1569C6.69035 33.2721 15.8944 48.8746 39.2655 41.7564C48.4608 38.9557 60.0442 32.8258 63.8972 17.6906C64.0032 17.2741 63.9885 16.8302 63.8635 16.4191Z" fill="#FFE17D"/>
<path d="M63.8635 16.4191C63.6624 15.7584 63.1961 15.2579 62.6209 14.9865C60.6253 21.4415 57.1639 26.1388 53.1414 29.5885C47.4627 34.4591 40.1458 37.0176 32.6664 37.171C32.3905 37.1768 32.1156 37.1798 31.8407 37.1798C27.8783 37.1798 15.7401 35.9908 10.3075 22.1451C8.08536 19.6173 6.64689 17.1945 5.9799 15.9552L3.86272 20.4078C5.00725 21.8629 5.9384 23.5196 6.06486 25.1568C6.69035 33.272 15.8944 48.8745 39.2655 41.7564C42.4251 40.794 45.8626 39.4258 49.1727 37.442C49.1741 37.4429 49.1761 37.4434 49.1775 37.4439C55.5057 33.6641 61.3684 27.6246 63.8972 17.6905C64.0032 17.274 63.9885 16.8302 63.8635 16.4191Z" fill="#FFD164"/>
<path d="M60.8011 14.9088C60.5692 14.9962 60.3241 15.088 60.0721 15.1828L63.6215 18.7106C63.7172 18.3747 63.8095 18.0358 63.8973 17.6906C64.0033 17.2741 63.9887 16.8302 63.8637 16.4191C63.4696 15.1256 62.0668 14.4333 60.8011 14.9088Z" fill="#C48D66"/>
<path d="M61.4095 32.1606C60.9383 32.1909 60.4232 32.2236 59.8832 32.2573C58.4251 32.3491 57.0038 32.7192 55.6854 33.3491C49.2577 36.4194 40.8783 39.2543 31.8407 39.2543C12.2959 39.2543 7.43846 21.0806 6.53612 16.5855C6.40086 15.9116 6.10741 15.2813 5.67137 14.75L3.5205 12.1294C3.13134 11.6553 2.41845 11.6206 1.98486 12.0542L0.305663 13.7334C-0.0488279 14.0879 -0.10205 14.6402 0.183105 15.0523C1.45849 16.8921 4.66796 22.0044 3.83153 25.7681C1.99462 34.0341 6.42528 52.351 31.8407 52.351C41.8407 52.351 55.2264 49.7616 63.6478 35.8672C63.8797 35.4848 63.9998 35.0385 63.9998 34.5918C63.9998 33.185 62.8133 32.0708 61.4095 32.1606Z" fill="#FFE17D"/>
<path d="M63.1975 32.7895C54.7288 45.288 41.9808 47.683 32.3592 47.683C10.4364 47.683 4.10492 34.1088 3.94085 25.058C3.91839 25.2988 3.88324 25.5361 3.83148 25.768C1.99457 34.0341 6.42522 52.3509 31.8407 52.3509C41.8407 52.3509 55.2264 49.7616 63.6477 35.8671C63.8797 35.4848 63.9998 35.0385 63.9998 34.5912C63.9998 33.873 63.6878 33.2338 63.1975 32.7895Z" fill="#FFD164"/>
<path d="M6.14697 15.487C6.01367 15.2272 5.8584 14.9777 5.67139 14.7497L3.52051 12.1296C3.13135 11.6554 2.41846 11.6208 1.98486 12.0539L0.305664 13.7336C-0.048828 14.088 -0.102051 14.6403 0.183106 15.0524C0.70752 15.8087 1.55713 17.1217 2.31934 18.6632L6.14697 15.487Z" fill="#D29B6E"/>
<path d="M61.4095 32.1606C61.1527 32.1772 60.8812 32.1943 60.6014 32.2119L63.0648 36.7978C63.2616 36.4926 63.4559 36.184 63.6483 35.8671C63.8797 35.4848 63.9998 35.0385 63.9998 34.5917C63.9998 33.185 62.8133 32.0707 61.4095 32.1606Z" fill="#C48D66"/>
</g>
<defs>
<clipPath id="clip0">
<rect width="64" height="64" fill="white"/>
</clipPath>
</defs>
</svg>
