<svg width="64" height="64" viewBox="0 0 64 64" fill="none" xmlns="http://www.w3.org/2000/svg">
<rect width="64" height="64" rx="32" fill="#357D9F"/>
<mask id="mask0" mask-type="alpha" maskUnits="userSpaceOnUse" x="0" y="0" width="64" height="64">
<rect width="64" height="64" rx="32" fill="#FF5239"/>
</mask>
<g mask="url(#mask0)">
</g>
<path d="M0 18.3604V62.0663C0 63.1298 0.82813 64 1.84021 64H61.2307C62.7601 64 64 62.6972 64 61.0901V48.7112V18.3604H0Z" fill="#E4EAF8"/>
<path d="M62.1598 6.74109C61.2609 6.74109 2.38642 6.74109 1.84021 6.74109C0.82813 6.74109 0 7.61127 0 8.67474V18.6656H64V8.67474C64 7.61127 63.1719 6.74109 62.1598 6.74109Z" fill="#FF6B6B"/>
<path d="M9.09905 16.5908C11.1424 16.5908 12.7988 14.8503 12.7988 12.7032C12.7988 11.2936 12.0848 10.0592 11.0161 9.37756V11.253C11.0161 12.3655 10.1578 13.2672 9.09919 13.2672C8.04059 13.2672 7.1823 12.3655 7.1823 11.253V9.37756C6.11355 10.0592 5.3996 11.2936 5.3996 12.7032C5.39946 14.8503 7.05586 16.5908 9.09905 16.5908Z" fill="#EE5253"/>
<path d="M9.09902 13.2673C8.04042 13.2673 7.18213 12.3656 7.18213 11.2531V2.01423C7.18213 0.901877 8.04042 0 9.09902 0C10.1576 0 11.0159 0.901877 11.0159 2.01423V11.2531C11.0159 12.3656 10.1578 13.2673 9.09902 13.2673Z" fill="#3E4B5A"/>
<path d="M9.69936 11.2531V2.01423C9.69936 1.40858 9.95492 0.866625 10.3576 0.497373C10.0207 0.188551 9.58124 0 9.09902 0C8.04028 0 7.18213 0.901877 7.18213 2.01423V11.2531C7.18213 12.3656 8.04042 13.2673 9.09902 13.2673C9.58124 13.2673 10.0207 13.0788 10.3576 12.7699C9.95492 12.4007 9.69936 11.8589 9.69936 11.2531Z" fill="#303F49"/>
<path d="M32.0001 16.5908C34.0434 16.5908 35.6998 14.8503 35.6998 12.7032C35.6998 11.2936 34.9859 10.0592 33.9171 9.37756V11.253C33.9171 12.3655 33.0588 13.2672 32.0003 13.2672C30.9417 13.2672 30.0834 12.3655 30.0834 11.253V9.37756C29.0146 10.0592 28.3007 11.2936 28.3007 12.7032C28.3004 14.8503 29.9568 16.5908 32.0001 16.5908Z" fill="#EE5253"/>
<path d="M32 13.2673C30.9414 13.2673 30.0831 12.3656 30.0831 11.2531V2.01423C30.0831 0.901877 30.9414 0 32 0C33.0586 0 33.9169 0.901877 33.9169 2.01423V11.2531C33.9169 12.3656 33.0586 13.2673 32 13.2673Z" fill="#3E4B5A"/>
<path d="M32.6002 11.2531V2.01423C32.6002 1.40858 32.8558 0.866625 33.2585 0.497373C32.9216 0.188551 32.4822 0 32 0C30.9413 0 30.0831 0.901877 30.0831 2.01423V11.2531C30.0831 12.3656 30.9414 13.2673 32 13.2673C32.4822 13.2673 32.9217 13.0788 33.2586 12.7699C32.8558 12.4007 32.6002 11.8589 32.6002 11.2531Z" fill="#303F49"/>
<path d="M54.901 16.5908C56.9443 16.5908 58.6007 14.8503 58.6007 12.7032C58.6007 11.2936 57.8868 10.0592 56.818 9.37756V11.253C56.818 12.3655 55.9597 13.2672 54.9011 13.2672C53.8425 13.2672 52.9842 12.3655 52.9842 11.253V9.37756C51.9155 10.0592 51.2015 11.2936 51.2015 12.7032C51.2013 14.8503 52.8577 16.5908 54.901 16.5908Z" fill="#EE5253"/>
<path d="M9.77913 13.1344C9.56755 13.2189 9.33892 13.2672 9.099 13.2672C8.04027 13.2672 7.18211 12.3655 7.18211 11.253V9.37756C6.11337 10.0592 5.39941 11.2936 5.39941 12.7032C5.39941 14.8503 7.05581 16.5908 9.09915 16.5908C9.91374 16.5908 10.6663 16.3135 11.2775 15.8449C10.4595 15.2176 9.89612 14.247 9.77913 13.1344Z" fill="#D83941"/>
<path d="M32.6802 13.1344C32.4686 13.2189 32.24 13.2672 32.0001 13.2672C30.9415 13.2672 30.0832 12.3655 30.0832 11.253V9.37756C29.0144 10.0592 28.3005 11.2936 28.3005 12.7032C28.3005 14.8503 29.9569 16.5908 32.0002 16.5908C32.8148 16.5908 33.5674 16.3135 34.1786 15.8449C33.3606 15.2176 32.797 14.2469 32.6802 13.1344Z" fill="#D83941"/>
<path d="M55.5812 13.1344C55.3695 13.2189 55.141 13.2672 54.9011 13.2672C53.8425 13.2672 52.9842 12.3655 52.9842 11.253V9.37756C51.9154 10.0592 51.2015 11.2936 51.2015 12.7032C51.2015 14.8503 52.8579 16.5908 54.9012 16.5908C55.7158 16.5908 56.4684 16.3135 57.0796 15.8449C56.2616 15.2176 55.698 14.247 55.5812 13.1344Z" fill="#D83941"/>
<path d="M54.901 13.2673C53.8424 13.2673 52.9841 12.3656 52.9841 11.2531V2.01423C52.9841 0.901877 53.8424 0 54.901 0C55.9596 0 56.8178 0.901877 56.8178 2.01423V11.2531C56.8178 12.3656 55.9597 13.2673 54.901 13.2673Z" fill="#3E4B5A"/>
<path d="M55.5013 11.2531V2.01423C55.5013 1.40858 55.757 0.866625 56.1596 0.497373C55.8227 0.188551 55.3832 0 54.901 0C53.8422 0 52.9841 0.901877 52.9841 2.01423V11.2531C52.9841 12.3656 53.8424 13.2673 54.901 13.2673C55.3832 13.2673 55.8227 13.0788 56.1596 12.7699C55.7569 12.4007 55.5013 11.8589 55.5013 11.2531Z" fill="#303F49"/>
<path d="M11.8018 48.8325H9.42487C8.41279 48.8325 7.58466 49.7027 7.58466 50.7662V53.2638C7.58466 54.3275 8.41279 55.1975 9.42487 55.1975H11.8018C12.8139 55.1975 13.6421 54.3273 13.6421 53.2638V50.7662C13.6421 49.7027 12.8139 48.8325 11.8018 48.8325Z" fill="#6AA5D3"/>
<path d="M11.9413 53.264V50.7663C11.9413 50.0853 12.2817 49.485 12.7917 49.1402C12.5053 48.9466 12.1659 48.8325 11.8019 48.8325H9.42493C8.41285 48.8325 7.58472 49.7027 7.58472 50.7662V53.2638C7.58472 54.3275 8.41285 55.1975 9.42493 55.1975H11.8019C12.166 55.1975 12.5053 55.0836 12.7917 54.8899C12.2817 54.5453 11.9413 53.945 11.9413 53.264Z" fill="#76B7EB"/>
<path d="M11.8018 37.6906H9.42487C8.41279 37.6906 7.58466 38.5607 7.58466 39.6242V42.1219C7.58466 43.1855 8.41279 44.0555 9.42487 44.0555H11.8018C12.8139 44.0555 13.6421 43.1854 13.6421 42.1219V39.6242C13.6421 38.5606 12.8139 37.6906 11.8018 37.6906Z" fill="#6AA5D3"/>
<path d="M11.9413 42.1219V39.6242C11.9413 38.9432 12.2817 38.3429 12.7917 37.9981C12.5052 37.8045 12.1658 37.6904 11.8018 37.6904H9.42487C8.41279 37.6904 7.58466 38.5606 7.58466 39.6241V42.1218C7.58466 43.1854 8.41279 44.0554 9.42487 44.0554H11.8018C12.1659 44.0554 12.5052 43.9415 12.7917 43.7478C12.2817 43.4033 11.9413 42.8029 11.9413 42.1219Z" fill="#76B7EB"/>
<path d="M11.8018 26.4777H9.42487C8.41279 26.4777 7.58466 27.3478 7.58466 28.4113V30.909C7.58466 31.9726 8.41279 32.8426 9.42487 32.8426H11.8018C12.8139 32.8426 13.6421 31.9725 13.6421 30.909V28.4113C13.6421 27.3478 12.8139 26.4777 11.8018 26.4777Z" fill="#6AA5D3"/>
<path d="M11.9413 30.9089V28.4112C11.9413 27.7302 12.2817 27.1299 12.7917 26.7851C12.5052 26.5915 12.1658 26.4774 11.8018 26.4774H9.42487C8.41279 26.4774 7.58466 27.3476 7.58466 28.4111V30.9087C7.58466 31.9724 8.41279 32.8424 9.42487 32.8424H11.8018C12.1659 32.8424 12.5052 32.7285 12.7917 32.5348C12.2817 32.1902 11.9413 31.5899 11.9413 30.9089Z" fill="#76B7EB"/>
<path d="M22.4951 48.8325H20.1181C19.106 48.8325 18.2779 49.7027 18.2779 50.7662V53.2638C18.2779 54.3275 19.106 55.1975 20.1181 55.1975H22.4951C23.5072 55.1975 24.3353 54.3273 24.3353 53.2638V50.7662C24.3353 49.7027 23.5073 48.8325 22.4951 48.8325Z" fill="#6AA5D3"/>
<path d="M22.6345 53.264V50.7663C22.6345 50.0853 22.9749 49.485 23.4849 49.1402C23.1985 48.9466 22.859 48.8325 22.4951 48.8325H20.1181C19.106 48.8325 18.2779 49.7027 18.2779 50.7662V53.2638C18.2779 54.3275 19.106 55.1975 20.1181 55.1975H22.4951C22.8592 55.1975 23.1985 55.0836 23.4849 54.8899C22.9749 54.5453 22.6345 53.945 22.6345 53.264Z" fill="#76B7EB"/>
<path d="M22.4951 37.6906H20.1181C19.106 37.6906 18.2779 38.5607 18.2779 39.6242V42.1219C18.2779 43.1855 19.106 44.0555 20.1181 44.0555H22.4951C23.5072 44.0555 24.3353 43.1854 24.3353 42.1219V39.6242C24.3353 38.5606 23.5073 37.6906 22.4951 37.6906Z" fill="#6AA5D3"/>
<path d="M22.6345 42.1219V39.6242C22.6345 38.9432 22.9749 38.3429 23.4849 37.9981C23.1985 37.8045 22.859 37.6904 22.4951 37.6904H20.1181C19.106 37.6904 18.2779 38.5606 18.2779 39.6241V42.1218C18.2779 43.1854 19.106 44.0554 20.1181 44.0554H22.4951C22.8592 44.0554 23.1985 43.9415 23.4849 43.7478C22.9749 43.4033 22.6345 42.8029 22.6345 42.1219Z" fill="#76B7EB"/>
<path d="M22.4951 26.4777H20.1181C19.106 26.4777 18.2779 27.3478 18.2779 28.4113V30.909C18.2779 31.9726 19.106 32.8426 20.1181 32.8426H22.4951C23.5072 32.8426 24.3353 31.9725 24.3353 30.909V28.4113C24.3353 27.3478 23.5073 26.4777 22.4951 26.4777Z" fill="#6AA5D3"/>
<path d="M22.6345 30.9089V28.4112C22.6345 27.7302 22.9749 27.1299 23.4849 26.7851C23.1985 26.5915 22.859 26.4774 22.4951 26.4774H20.1181C19.106 26.4774 18.2779 27.3476 18.2779 28.4111V30.9087C18.2779 31.9724 19.106 32.8424 20.1181 32.8424H22.4951C22.8592 32.8424 23.1985 32.7285 23.4849 32.5348C22.9749 32.1902 22.6345 31.5899 22.6345 30.9089Z" fill="#76B7EB"/>
<path d="M33.1884 48.8325H30.8115C29.7994 48.8325 28.9713 49.7027 28.9713 50.7662V53.2638C28.9713 54.3275 29.7994 55.1975 30.8115 55.1975H33.1884C34.2005 55.1975 35.0286 54.3273 35.0286 53.2638V50.7662C35.0286 49.7027 34.2005 48.8325 33.1884 48.8325Z" fill="#6AA5D3"/>
<path d="M33.3278 53.264V50.7663C33.3278 50.0853 33.6683 49.485 34.1782 49.1402C33.8918 48.9466 33.5524 48.8325 33.1884 48.8325H30.8115C29.7994 48.8325 28.9713 49.7027 28.9713 50.7662V53.2638C28.9713 54.3275 29.7994 55.1975 30.8115 55.1975H33.1884C33.5525 55.1975 33.8918 55.0836 34.1782 54.8899C33.6683 54.5453 33.3278 53.945 33.3278 53.264Z" fill="#76B7EB"/>
<path d="M33.1884 37.6906H30.8115C29.7994 37.6906 28.9713 38.5607 28.9713 39.6242V42.1219C28.9713 43.1855 29.7994 44.0555 30.8115 44.0555H33.1884C34.2005 44.0555 35.0286 43.1854 35.0286 42.1219V39.6242C35.0286 38.5606 34.2005 37.6906 33.1884 37.6906Z" fill="#6AA5D3"/>
<path d="M33.3278 42.1219V39.6242C33.3278 38.9432 33.6683 38.3429 34.1782 37.9981C33.8918 37.8045 33.5524 37.6904 33.1884 37.6904H30.8115C29.7994 37.6904 28.9713 38.5606 28.9713 39.6241V42.1218C28.9713 43.1854 29.7994 44.0554 30.8115 44.0554H33.1884C33.5525 44.0554 33.8918 43.9415 34.1782 43.7478C33.6683 43.4033 33.3278 42.8029 33.3278 42.1219Z" fill="#76B7EB"/>
<path d="M33.1884 26.4777H30.8115C29.7994 26.4777 28.9713 27.3478 28.9713 28.4113V30.909C28.9713 31.9726 29.7994 32.8426 30.8115 32.8426H33.1884C34.2005 32.8426 35.0286 31.9725 35.0286 30.909V28.4113C35.0286 27.3478 34.2005 26.4777 33.1884 26.4777Z" fill="#6AA5D3"/>
<path d="M33.3278 30.9089V28.4112C33.3278 27.7302 33.6683 27.1299 34.1782 26.7851C33.8918 26.5915 33.5524 26.4774 33.1884 26.4774H30.8115C29.7994 26.4774 28.9713 27.3476 28.9713 28.4111V30.9087C28.9713 31.9724 29.7994 32.8424 30.8115 32.8424H33.1884C33.5525 32.8424 33.8918 32.7285 34.1782 32.5348C33.6683 32.1902 33.3278 31.5899 33.3278 30.9089Z" fill="#76B7EB"/>
<path d="M43.8817 48.8325H41.5048C40.4927 48.8325 39.6646 49.7027 39.6646 50.7662V53.2638C39.6646 54.3275 40.4927 55.1975 41.5048 55.1975H43.8817C44.8938 55.1975 45.7219 54.3273 45.7219 53.2638V50.7662C45.7221 49.7027 44.894 48.8325 43.8817 48.8325Z" fill="#6AA5D3"/>
<path d="M44.0212 53.264V50.7663C44.0212 50.0853 44.3616 49.485 44.8716 49.1402C44.5851 48.9466 44.2457 48.8325 43.8817 48.8325H41.5048C40.4927 48.8325 39.6646 49.7027 39.6646 50.7662V53.2638C39.6646 54.3275 40.4927 55.1975 41.5048 55.1975H43.8817C44.2458 55.1975 44.5851 55.0836 44.8716 54.8899C44.3616 54.5453 44.0212 53.945 44.0212 53.264Z" fill="#76B7EB"/>
<path d="M43.8817 37.6906H41.5048C40.4927 37.6906 39.6646 38.5607 39.6646 39.6242V42.1219C39.6646 43.1855 40.4927 44.0555 41.5048 44.0555H43.8817C44.8938 44.0555 45.7219 43.1854 45.7219 42.1219V39.6242C45.7221 38.5606 44.894 37.6906 43.8817 37.6906Z" fill="#6AA5D3"/>
<path d="M44.0212 42.1219V39.6242C44.0212 38.9432 44.3616 38.3429 44.8716 37.9981C44.5851 37.8045 44.2457 37.6904 43.8817 37.6904H41.5048C40.4927 37.6904 39.6646 38.5606 39.6646 39.6241V42.1218C39.6646 43.1854 40.4927 44.0554 41.5048 44.0554H43.8817C44.2458 44.0554 44.5851 43.9415 44.8716 43.7478C44.3616 43.4033 44.0212 42.8029 44.0212 42.1219Z" fill="#76B7EB"/>
<path d="M43.8817 26.4777H41.5048C40.4927 26.4777 39.6646 27.3478 39.6646 28.4113V30.909C39.6646 31.9726 40.4927 32.8426 41.5048 32.8426H43.8817C44.8938 32.8426 45.7219 31.9725 45.7219 30.909V28.4113C45.7221 27.3478 44.894 26.4777 43.8817 26.4777Z" fill="#6AA5D3"/>
<path d="M44.0212 30.9089V28.4112C44.0212 27.7302 44.3616 27.1299 44.8716 26.7851C44.5851 26.5915 44.2457 26.4774 43.8817 26.4774H41.5048C40.4927 26.4774 39.6646 27.3476 39.6646 28.4111V30.9087C39.6646 31.9724 40.4927 32.8424 41.5048 32.8424H43.8817C44.2458 32.8424 44.5851 32.7285 44.8716 32.5348C44.3616 32.1902 44.0212 31.5899 44.0212 30.9089Z" fill="#76B7EB"/>
<path d="M54.5751 37.6906H52.1981C51.186 37.6906 50.3579 38.5607 50.3579 39.6242V42.1219C50.3579 43.1855 51.186 44.0555 52.1981 44.0555H54.5751C55.5872 44.0555 56.4153 43.1854 56.4153 42.1219V39.6242C56.4153 38.5606 55.5872 37.6906 54.5751 37.6906Z" fill="#6AA5D3"/>
<path d="M54.7145 42.1219V39.6242C54.7145 38.9432 55.0549 38.3429 55.5649 37.9981C55.2785 37.8045 54.9391 37.6904 54.5751 37.6904H52.1981C51.186 37.6904 50.3579 38.5606 50.3579 39.6241V42.1218C50.3579 43.1854 51.186 44.0554 52.1981 44.0554H54.5751C54.9392 44.0554 55.2785 43.9415 55.5649 43.7478C55.0549 43.4033 54.7145 42.8029 54.7145 42.1219Z" fill="#76B7EB"/>
<path d="M54.5751 26.4777H52.1981C51.186 26.4777 50.3579 27.3478 50.3579 28.4113V30.909C50.3579 31.9726 51.186 32.8426 52.1981 32.8426H54.5751C55.5872 32.8426 56.4153 31.9725 56.4153 30.909V28.4113C56.4153 27.3478 55.5872 26.4777 54.5751 26.4777Z" fill="#6AA5D3"/>
<path d="M54.7145 30.9089V28.4112C54.7145 27.7302 55.0549 27.1299 55.5649 26.7851C55.2785 26.5915 54.9391 26.4774 54.5751 26.4774H52.1981C51.186 26.4774 50.3579 27.3476 50.3579 28.4111V30.9087C50.3579 31.9724 51.186 32.8424 52.1981 32.8424H54.5751C54.9392 32.8424 55.2785 32.7285 55.5649 32.5348C55.0549 32.1902 54.7145 31.5899 54.7145 30.9089Z" fill="#76B7EB"/>
</svg>
