<svg width="64" height="64" viewBox="0 0 64 64" fill="none" xmlns="http://www.w3.org/2000/svg">
<rect width="64" height="64" rx="32" fill="#357D9F"/>
<mask id="mask0" mask-type="alpha" maskUnits="userSpaceOnUse" x="0" y="0" width="64" height="64">
<rect width="64" height="64" rx="32" fill="#FF5239"/>
</mask>
<g mask="url(#mask0)">
</g>
<g clip-path="url(#clip0)">
<path d="M50.7403 64.0001H13.2596C11.44 64.0001 9.96472 62.525 9.96472 60.7052V13.5677C9.96472 11.7481 11.4398 10.2728 13.2596 10.2728H50.7403C52.56 10.2728 54.0352 11.748 54.0352 13.5677V60.7052C54.0351 62.525 52.56 64.0001 50.7403 64.0001Z" fill="#76B7EB"/>
<path d="M50.7403 64.0001H13.2596C11.44 64.0001 9.96472 62.525 9.96472 60.7052V13.5677C9.96472 11.7481 11.4398 10.2728 13.2596 10.2728H50.7403C52.56 10.2728 54.0352 11.748 54.0352 13.5677V60.7052C54.0351 62.525 52.56 64.0001 50.7403 64.0001Z" fill="#76B7EB"/>
<path opacity="0.1" d="M14.0692 60.0115V18.3821C14.0692 17.3081 14.9398 16.4376 16.0137 16.4376H47.9862C49.0602 16.4376 49.9307 17.3082 49.9307 18.3821V60.0115C49.9307 61.0855 49.06 61.956 47.9862 61.956H16.0138C14.9398 61.9561 14.0692 61.0855 14.0692 60.0115Z" fill="black"/>
<path d="M14.0692 57.9511V16.3217C14.0692 15.2477 14.9398 14.3772 16.0137 14.3772H47.9862C49.0602 14.3772 49.9307 15.2478 49.9307 16.3217V57.9512C49.9307 59.0251 49.06 59.8957 47.9862 59.8957H16.0138C14.9398 59.8957 14.0692 59.0251 14.0692 57.9511Z" fill="white"/>
<path d="M26.3306 25.2388V21.8703C26.3306 21.5612 26.08 21.3105 25.7709 21.3105H22.3613C22.0521 21.3105 21.8015 21.5612 21.8015 21.8703V25.2388C21.8015 25.4842 21.6026 25.6831 21.3573 25.6831H17.9888C17.6796 25.6831 17.429 25.9337 17.429 26.2428V29.6524C17.429 29.9616 17.6796 30.2122 17.9888 30.2122H21.3573C21.6026 30.2122 21.8015 30.4111 21.8015 30.6564V34.0249C21.8015 34.3341 22.0521 34.5847 22.3613 34.5847H25.7709C26.08 34.5847 26.3306 34.3341 26.3306 34.0249V30.6564C26.3306 30.4111 26.5295 30.2122 26.7749 30.2122H30.1434C30.4525 30.2122 30.7031 29.9616 30.7031 29.6524V26.2428C30.7031 25.9337 30.4525 25.6831 30.1434 25.6831H26.7749C26.5295 25.6831 26.3306 25.4842 26.3306 25.2388Z" fill="#FF5239"/>
<path d="M45.49 26.0499H35.2156C34.6186 26.0499 34.1345 25.5659 34.1345 24.9688V23.4898C34.1345 22.8927 34.6185 22.4087 35.2156 22.4087H45.49C46.087 22.4087 46.5711 22.8927 46.5711 23.4898V24.9688C46.571 25.5659 46.087 26.0499 45.49 26.0499Z" fill="#12D8A8"/>
<path d="M44.0462 53.0001H19.9538C19.4271 53.0001 19 52.5524 19 52.0001C19 51.4479 19.4271 51.0001 19.9538 51.0001H44.0462C44.5729 51.0001 45 51.4479 45 52.0001C45 52.5524 44.5729 53.0001 44.0462 53.0001Z" fill="#343A48"/>
<path d="M44.0462 49.0001H19.9538C19.4271 49.0001 19 48.5524 19 48.0001C19 47.4479 19.4271 47.0001 19.9538 47.0001H44.0462C44.5729 47.0001 45 47.4479 45 48.0001C45 48.5524 44.5729 49.0001 44.0462 49.0001Z" fill="#343A48"/>
<path d="M44.0462 45.0001H19.9538C19.4271 45.0001 19 44.5524 19 44.0001C19 43.4479 19.4271 43.0001 19.9538 43.0001H44.0462C44.5729 43.0001 45 43.4479 45 44.0001C45 44.5524 44.5729 45.0001 44.0462 45.0001Z" fill="#343A48"/>
<path d="M44.0462 41.0001H19.9538C19.4271 41.0001 19 40.5524 19 40.0001C19 39.4479 19.4271 39.0001 19.9538 39.0001H44.0462C44.5729 39.0001 45 39.4479 45 40.0001C45 40.5524 44.5729 41.0001 44.0462 41.0001Z" fill="#343A48"/>
<path d="M45.3981 30.5543H35.3075C34.7897 30.5543 34.37 30.1346 34.37 29.6168C34.37 29.0991 34.7897 28.6793 35.3075 28.6793H45.3982C45.916 28.6793 46.3357 29.0991 46.3357 29.6168C46.3356 30.1346 45.9159 30.5543 45.3981 30.5543Z" fill="#343A48"/>
<path opacity="0.1" d="M13.2596 10.2728C11.44 10.2728 9.96472 11.748 9.96472 13.5677V60.7052C9.96472 62.5248 11.4398 64.0001 13.2596 64.0001H33.4021C17.8127 56.0143 19.0173 25.8226 19.4403 10.2728H13.2596Z" fill="black"/>
<path d="M39.4626 8.03235H37.515C36.79 8.03235 36.2714 7.30585 36.5349 6.63048C36.7809 6.0001 36.899 5.30585 36.8573 4.5791C36.718 2.1556 34.7659 0.178477 32.3441 0.0119766C29.5014 -0.183523 27.1345 2.0646 27.1345 4.86573C27.1345 5.47623 27.2471 6.06023 27.4527 6.59835C27.7166 7.28935 27.225 8.03248 26.4853 8.03248H24.5374C23.8867 8.03248 23.3594 8.55985 23.3594 9.21048V15.7069C23.3594 16.3575 23.8867 16.8849 24.5374 16.8849H39.4626C40.1132 16.8849 40.6406 16.3575 40.6406 15.7069V9.21035C40.6406 8.55973 40.1132 8.03235 39.4626 8.03235ZM32 6.78298C30.9411 6.78298 30.0828 5.9246 30.0828 4.86573C30.0828 3.80685 30.9411 2.94848 32 2.94848C33.0589 2.94848 33.9173 3.80685 33.9173 4.86573C33.9173 5.9246 33.0589 6.78298 32 6.78298Z" fill="#BDC0C3"/>
<path opacity="0.1" d="M29.4837 7.52482C28.9116 6.01357 28.6874 3.00557 29.2279 0.866943C27.9629 1.74557 27.1345 3.20869 27.1345 4.86557C27.1345 5.47694 27.2475 6.06182 27.4536 6.60057C27.7175 7.29044 27.2239 8.03232 26.4853 8.03232H24.5374C23.8867 8.03232 23.3594 8.55969 23.3594 9.21032V15.7067C23.3594 16.3573 23.8867 16.8847 24.5374 16.8847H33.6838C30.4918 14.7124 29.8121 11.4311 29.7841 9.20244C29.7769 8.63007 29.6864 8.06007 29.4837 7.52482Z" fill="black"/>
<g opacity="0.1">
<path opacity="0.1" d="M35.7094 11.9772H28.2905C27.7728 11.9772 27.353 11.5574 27.353 11.0397C27.353 10.5219 27.7728 10.1022 28.2905 10.1022H35.7094C36.2271 10.1022 36.6469 10.5219 36.6469 11.0397C36.6469 11.5574 36.2271 11.9772 35.7094 11.9772Z" fill="black"/>
<path opacity="0.1" d="M35.7094 14.8148H28.2905C27.7728 14.8148 27.353 14.3951 27.353 13.8773C27.353 13.3596 27.7728 12.9398 28.2905 12.9398H35.7094C36.2271 12.9398 36.6469 13.3596 36.6469 13.8773C36.6469 14.3951 36.2271 14.8148 35.7094 14.8148Z" fill="black"/>
</g>
</g>
<defs>
<clipPath id="clip0">
<rect width="64" height="64" fill="white"/>
</clipPath>
</defs>
</svg>
