<svg width="64" height="64" viewBox="0 0 64 64" fill="none" xmlns="http://www.w3.org/2000/svg">
<rect width="64" height="64" rx="32" fill="#357D9F"/>
<mask id="mask0" mask-type="alpha" maskUnits="userSpaceOnUse" x="0" y="0" width="64" height="64">
<rect width="64" height="64" rx="32" fill="#FF5239"/>
</mask>
<g mask="url(#mask0)">
<g clip-path="url(#clip0)">
<path d="M10.0688 30.5973C12.2019 30.5973 13.931 28.8681 13.931 26.7351C13.931 24.602 12.2019 22.8728 10.0688 22.8728C7.93573 22.8728 6.20654 24.602 6.20654 26.7351C6.20654 28.8681 7.93573 30.5973 10.0688 30.5973Z" fill="#F5D7B7"/>
<path opacity="0.15" d="M10.0688 30.5973C12.2019 30.5973 13.931 28.8681 13.931 26.7351C13.931 24.602 12.2019 22.8728 10.0688 22.8728C7.93573 22.8728 6.20654 24.602 6.20654 26.7351C6.20654 28.8681 7.93573 30.5973 10.0688 30.5973Z" fill="black"/>
<path d="M53.9312 30.5973C56.0643 30.5973 57.7935 28.8681 57.7935 26.7351C57.7935 24.602 56.0643 22.8728 53.9312 22.8728C51.7982 22.8728 50.069 24.602 50.069 26.7351C50.069 28.8681 51.7982 30.5973 53.9312 30.5973Z" fill="#F5D7B7"/>
<path opacity="0.15" d="M53.9312 30.5973C56.0643 30.5973 57.7935 28.8681 57.7935 26.7351C57.7935 24.602 56.0643 22.8728 53.9312 22.8728C51.7982 22.8728 50.069 24.602 50.069 26.7351C50.069 28.8681 51.7982 30.5973 53.9312 30.5973Z" fill="black"/>
<path d="M49.2875 64.0001C50.1964 64.0001 50.9211 63.2246 50.8414 62.3191C49.9908 52.6601 41.88 45.0851 32 45.0851C22.12 45.0851 14.0093 52.6601 13.1586 62.3191C13.079 63.2246 13.8036 64.0001 14.7125 64.0001H49.2875Z" fill="#E8E9EA"/>
<path d="M44.9625 60.5252H39.0952C38.7343 60.5252 38.4418 60.2327 38.4418 59.8718V58.1677C38.4418 57.8068 38.7343 57.5143 39.0952 57.5143H44.9625C45.3233 57.5143 45.6158 57.8068 45.6158 58.1677V59.8718C45.6158 60.2327 45.3233 60.5252 44.9625 60.5252Z" fill="#BDC0C3"/>
<path d="M32 45.0851C29.7378 45.0851 27.5689 45.4833 25.5582 46.2116L28.7428 64.0001H35.2572L38.4419 46.2116C36.4312 45.4833 34.2623 45.0851 32 45.0851Z" fill="#B3E7FF"/>
<path opacity="0.1" d="M38.4419 49.0294V51.682L32.8869 55.3469C32.3489 55.7019 31.651 55.7019 31.113 55.3469L25.558 51.682V49.0294H38.4419Z" fill="black"/>
<path d="M38.4419 46.7327V49.3853L32.8869 53.0502C32.3489 53.4052 31.651 53.4052 31.113 53.0502L25.558 49.3853V46.7327H38.4419Z" fill="#F5D7B7"/>
<path d="M27.5163 46.7861L30.1093 64H27.5163L22.8789 59.5054C22.5673 59.2034 22.56 58.7058 22.8626 58.3946L23.921 57.3071C24.152 57.0698 24.1839 56.7026 23.9974 56.429L22.0204 53.5294C21.8354 53.258 21.7954 52.9131 21.9133 52.6066L24.1521 46.7863H27.5163V46.7861Z" fill="#76B7EB"/>
<path d="M36.4837 46.7861L33.8907 64H36.4839L41.1213 59.5054C41.4329 59.2034 41.4401 58.7058 41.1375 58.3946L40.0791 57.3071C39.8481 57.0698 39.8163 56.7026 40.0028 56.429L41.9798 53.5294C42.1648 53.258 42.2048 52.9131 42.0869 52.6066L39.848 46.7863H36.4837V46.7861Z" fill="#76B7EB"/>
<path opacity="0.1" d="M32 45.0851C27.7578 45.0851 23.8424 46.4826 20.6871 48.8411C24.0685 50.7095 27.9179 51.7693 32 51.7693C36.0821 51.7693 39.9315 50.7093 43.3129 48.8411C40.1576 46.4826 36.2423 45.0851 32 45.0851Z" fill="black"/>
<path d="M53.9308 26.7346C53.9308 13.9956 44.112 3.66858 32 3.66858C19.888 3.66858 10.0693 13.9956 10.0693 26.7346C10.0693 39.4736 19.888 49.3851 32 49.3851C44.112 49.3851 53.9308 39.4736 53.9308 26.7346Z" fill="#F5D7B7"/>
<path d="M18.61 35.6838C21.047 35.6838 23.0225 34.1106 23.0225 32.17C23.0225 30.2294 21.047 28.6562 18.61 28.6562C16.1731 28.6562 14.1975 30.2294 14.1975 32.17C14.1975 34.1106 16.1731 35.6838 18.61 35.6838Z" fill="#F28B74"/>
<path d="M45.39 35.6838C47.827 35.6838 49.8025 34.1106 49.8025 32.17C49.8025 30.2294 47.827 28.6562 45.39 28.6562C42.9531 28.6562 40.9775 30.2294 40.9775 32.17C40.9775 34.1106 42.9531 35.6838 45.39 35.6838Z" fill="#F28B74"/>
<path d="M20.8328 29.604C20.315 29.604 19.8953 29.1844 19.8953 28.6665V26.8127C19.8953 26.2949 20.315 25.8752 20.8328 25.8752C21.3505 25.8752 21.7703 26.2949 21.7703 26.8127V28.6665C21.7703 29.1844 21.3505 29.604 20.8328 29.604Z" fill="#495059"/>
<path d="M43.1672 29.604C42.6495 29.604 42.2297 29.1844 42.2297 28.6665V26.8127C42.2297 26.2949 42.6495 25.8752 43.1672 25.8752C43.685 25.8752 44.1047 26.2949 44.1047 26.8127V28.6665C44.1047 29.1844 43.685 29.604 43.1672 29.604Z" fill="#495059"/>
<path d="M32 31.0276C30.6006 31.0276 29.2699 30.4215 28.349 29.3646C28.0089 28.9744 28.0495 28.3821 28.4399 28.042C28.8301 27.7018 29.4224 27.7425 29.7626 28.1329C30.3274 28.7809 31.1429 29.1525 32 29.1525C32.8571 29.1525 33.6728 28.7808 34.2374 28.1329C34.5775 27.7423 35.1696 27.7018 35.5601 28.042C35.9505 28.3821 35.9911 28.9744 35.651 29.3646C34.7301 30.4215 33.3994 31.0276 32 31.0276Z" fill="#495059"/>
<path opacity="0.05" d="M32 3.66858C19.888 3.66858 10.0693 13.9956 10.0693 26.7346C10.0693 39.4736 19.888 49.3851 32 49.3851C34.8214 49.3851 37.518 48.8468 39.9953 47.8607C21.718 48.1381 17.3525 35.3683 16.6119 24.5042C16.5819 24.0638 16.7924 23.646 17.1556 23.3952C18.512 22.4583 19.7238 21.069 20.2348 19.0671C23.6039 22.7452 40.3938 28.9502 53.8013 24.2273C52.6132 12.6678 43.3064 3.66858 32 3.66858Z" fill="black"/>
<path d="M54.387 23.6483C55.1916 23.4375 55.7009 22.6377 55.5456 21.8205C53.3575 10.3013 43.6325 1.59167 32 1.59167C20.0891 1.59167 10.1768 10.7228 8.309 22.6519C8.22838 23.1672 8.55963 23.6647 9.06875 23.7774C12.5105 24.5392 18.345 22.5139 20.2349 19.0673C20.4971 18.589 21.1161 18.4444 21.5594 18.7624C26.0575 21.9888 43.3231 26.5453 54.387 23.6483Z" fill="#495059"/>
<path d="M10.8331 15.865H53.1705C53.9708 15.865 54.4848 15.0169 54.1176 14.3058C53.2978 12.7175 52.3274 11.2318 51.2281 9.86726C50.7933 9.32739 50.14 9.00989 49.4466 9.00989H14.5531C13.8585 9.00989 13.2043 9.32889 12.7693 9.87039C11.6636 11.2466 10.6976 12.7339 9.88564 14.3064C9.51864 15.0173 10.0333 15.865 10.8331 15.865Z" fill="#76B7EB"/>
<path d="M31.935 16.4295C36.4719 16.4295 40.1498 12.7516 40.1498 8.21475C40.1498 3.67787 36.4719 0 31.935 0C27.3981 0 23.7203 3.67787 23.7203 8.21475C23.7203 12.7516 27.3981 16.4295 31.935 16.4295Z" fill="#E8E9EA"/>
<path d="M31.935 11.5087C33.7541 11.5087 35.2289 10.0339 35.2289 8.21478C35.2289 6.39562 33.7541 4.9209 31.935 4.9209C30.1158 4.9209 28.6411 6.39562 28.6411 8.21478C28.6411 10.0339 30.1158 11.5087 31.935 11.5087Z" fill="#BDC0C3"/>
</g>
</g>
<defs>
<clipPath id="clip0">
<rect width="64" height="64" fill="white"/>
</clipPath>
</defs>
</svg>
