<svg width="28" height="28" viewBox="0 0 28 28" fill="none" xmlns="http://www.w3.org/2000/svg">
<path d="M14 4C12.6868 4 11.3864 4.25866 10.1732 4.7612C8.95991 5.26375 7.85752 6.00035 6.92893 6.92893C5.05357 8.8043 4 11.3478 4 14C4 16.6522 5.05357 19.1957 6.92893 21.0711C7.85752 21.9997 8.95991 22.7362 10.1732 23.2388C11.3864 23.7413 12.6868 24 14 24C16.6522 24 19.1957 22.9464 21.0711 21.0711C22.9464 19.1957 24 16.6522 24 14C24 12.6868 23.7413 11.3864 23.2388 10.1732C22.7362 8.95991 21.9997 7.85752 21.0711 6.92893C20.1425 6.00035 19.0401 5.26375 17.8268 4.7612C16.6136 4.25866 15.3132 4 14 4ZM9.07 20.28C9.5 19.38 12.12 18.5 14 18.5C15.88 18.5 18.5 19.38 18.93 20.28C17.57 21.36 15.86 22 14 22C12.14 22 10.43 21.36 9.07 20.28ZM20.36 18.83C18.93 17.09 15.46 16.5 14 16.5C12.54 16.5 9.07 17.09 7.64 18.83C6.62 17.5 6 15.82 6 14C6 9.59 9.59 6 14 6C18.41 6 22 9.59 22 14C22 15.82 21.38 17.5 20.36 18.83ZM14 8C12.06 8 10.5 9.56 10.5 11.5C10.5 13.44 12.06 15 14 15C15.94 15 17.5 13.44 17.5 11.5C17.5 9.56 15.94 8 14 8ZM14 13C13.6022 13 13.2206 12.842 12.9393 12.5607C12.658 12.2794 12.5 11.8978 12.5 11.5C12.5 11.1022 12.658 10.7206 12.9393 10.4393C13.2206 10.158 13.6022 10 14 10C14.3978 10 14.7794 10.158 15.0607 10.4393C15.342 10.7206 15.5 11.1022 15.5 11.5C15.5 11.8978 15.342 12.2794 15.0607 12.5607C14.7794 12.842 14.3978 13 14 13Z" fill="#343A48"/>
</svg>
