<svg width="28" height="28" viewBox="0 0 28 28" fill="none" xmlns="http://www.w3.org/2000/svg">
<path fill-rule="evenodd" clip-rule="evenodd" d="M19 7.046V4C19 2.895 18.254 2 17.333 2H10.667C9.746 2 9 2.895 9 4V7.046C7.861 7.261 7 8.238 7 9.414V18.586C7 19.762 7.861 20.739 9 20.953V24C9 25.105 9.746 26 10.667 26H14.0343C13.2256 25.4894 12.5374 24.8053 12.0218 24H11V21H11.0189C11.0064 20.835 11 20.6682 11 20.5C11 19.9837 11.0602 19.4815 11.1739 19H9V9H19V14.1739C19.7204 14.3441 20.3945 14.6341 21 15.0218V9.414C21 8.238 20.139 7.261 19 7.046ZM11 4H17V7H11V4ZM19.9099 16.68C21.9999 18 22.6399 20.79 21.3099 22.9L24.3899 26L22.9999 27.39L19.8799 24.32C18.4099 25.23 16.5499 25.23 15.0899 24.3C12.9999 22.97 12.3499 20.19 13.6899 18.08C14.9999 16 17.7999 15.35 19.9099 16.68ZM15.7322 22.2678C16.201 22.7366 16.8369 23 17.4999 23C18.163 23 18.7989 22.7366 19.2677 22.2678C19.7366 21.799 19.9999 21.1631 19.9999 20.5C19.9999 19.837 19.7366 19.2011 19.2677 18.7323C18.7989 18.2634 18.163 18 17.4999 18C16.8369 18 16.201 18.2634 15.7322 18.7323C15.2633 19.2011 14.9999 19.837 14.9999 20.5C14.9999 21.1631 15.2633 21.799 15.7322 22.2678Z" fill="#343A48"/>
</svg>
