<svg width="28" height="28" viewBox="0 0 28 28" fill="none" xmlns="http://www.w3.org/2000/svg">
<path d="M11.4941 4L11.0039 6.52344C10.1797 6.83425 9.42291 7.26993 8.75977 7.81445L6.33594 6.97852L4 11.0215L5.94141 12.709C5.86677 13.1672 5.82812 13.5918 5.82812 14C5.82812 14.4088 5.86793 14.8326 5.94141 15.291V15.293L4 16.9805L6.33594 21.0215L8.75781 20.1875C9.42102 20.7323 10.1796 21.1656 11.0039 21.4766L11.4941 24H16.1621L16.6523 21.4766C17.477 21.1655 18.233 20.7306 18.8965 20.1855L21.3203 21.0215L23.6543 16.9805L21.7148 15.291C21.7895 14.8328 21.8281 14.4082 21.8281 14C21.8281 13.5925 21.7893 13.1684 21.7148 12.7109V12.709L23.6562 11.0195L21.3203 6.97852L18.8984 7.8125C18.2352 7.26768 17.4767 6.83443 16.6523 6.52344L16.1621 4H11.4941ZM13.1426 6H14.5137L14.9023 8L15.9453 8.39453C16.574 8.63147 17.1388 8.95675 17.6289 9.35938L18.4922 10.0664L20.4141 9.40625L21.0996 10.5918L19.5645 11.9277L19.7402 13.0273V13.0293C19.8014 13.4042 19.8281 13.7188 19.8281 14C19.8281 14.2812 19.8014 14.5957 19.7402 14.9707L19.5625 16.0703L21.0977 17.4062L20.4121 18.5938L18.4922 17.9316L17.627 18.6406C17.1368 19.0432 16.574 19.3685 15.9453 19.6055H15.9434L14.9004 20L14.5117 22H13.1426L12.7539 20L11.7109 19.6055C11.0823 19.3685 10.5175 19.0432 10.0273 18.6406L9.16406 17.9336L7.24219 18.5938L6.55664 17.4082L8.09375 16.0703L7.91602 14.9746V14.9727C7.85574 14.5961 7.82812 14.2807 7.82812 14C7.82812 13.7188 7.85487 13.4043 7.91602 13.0293L8.09375 11.9297L6.55664 10.5938L7.24219 9.40625L9.16406 10.0684L10.0273 9.35938C10.5175 8.95675 11.0823 8.63147 11.7109 8.39453L12.7539 8L13.1426 6ZM13.8281 10C11.6316 10 9.82812 11.8035 9.82812 14C9.82812 16.1965 11.6316 18 13.8281 18C16.0246 18 17.8281 16.1965 17.8281 14C17.8281 11.8035 16.0246 10 13.8281 10ZM13.8281 12C14.9396 12 15.8281 12.8885 15.8281 14C15.8281 15.1115 14.9396 16 13.8281 16C12.7166 16 11.8281 15.1115 11.8281 14C11.8281 12.8885 12.7166 12 13.8281 12Z" fill="#343A48"/>
</svg>
