<svg width="28" height="28" viewBox="0 0 28 28" fill="none" xmlns="http://www.w3.org/2000/svg">
<path d="M21.79 17.41C22.74 15.24 22.74 12.75 21.79 10.59L19.05 11.83C19.65 13.21 19.65 14.78 19.06 16.17L21.79 17.41ZM17.42 6.21C15.25 5.26 12.76 5.26 10.59 6.21L11.83 8.94C13.22 8.35 14.79 8.35 16.18 8.95L17.42 6.21ZM6.21 10.58C5.26 12.76 5.26 15.24 6.21 17.42L8.95 16.17C8.35 14.79 8.35 13.21 8.95 11.82L6.21 10.58ZM10.59 21.79C12.76 22.74 15.25 22.74 17.42 21.78L16.18 19.05C14.8 19.65 13.22 19.65 11.84 19.06L10.59 21.79ZM14 4C15.3132 4 16.6136 4.25866 17.8268 4.7612C19.0401 5.26375 20.1425 6.00035 21.0711 6.92893C21.9997 7.85752 22.7362 8.95991 23.2388 10.1732C23.7413 11.3864 24 12.6868 24 14C24 16.6522 22.9464 19.1957 21.0711 21.0711C19.1957 22.9464 16.6522 24 14 24C12.6868 24 11.3864 23.7413 10.1732 23.2388C8.95991 22.7362 7.85752 21.9997 6.92893 21.0711C5.05357 19.1957 4 16.6522 4 14C4 11.3478 5.05357 8.8043 6.92893 6.92893C8.8043 5.05357 11.3478 4 14 4ZM14 10C12.9391 10 11.9217 10.4214 11.1716 11.1716C10.4214 11.9217 10 12.9391 10 14C10 15.0609 10.4214 16.0783 11.1716 16.8284C11.9217 17.5786 12.9391 18 14 18C15.0609 18 16.0783 17.5786 16.8284 16.8284C17.5786 16.0783 18 15.0609 18 14C18 12.9391 17.5786 11.9217 16.8284 11.1716C16.0783 10.4214 15.0609 10 14 10Z" fill="#343A48"/>
</svg>
